<svg xmlns="http://www.w3.org/2000/svg" xmlns:xlink="http://www.w3.org/1999/xlink" width="0" height="0" style="display:none;"><symbol viewBox="0 0 24 24" id="facebook-circle-fill"><path d="M12.001 2C6.47813 2 2.00098 6.47715 2.00098 12C2.00098 16.9913 5.65783 21.1283 10.4385 21.8785V14.8906H7.89941V12H10.4385V9.79688C10.4385 7.29063 11.9314 5.90625 14.2156 5.90625C15.3097 5.90625 16.4541 6.10156 16.4541 6.10156V8.5625H15.1931C13.9509 8.5625 13.5635 9.33334 13.5635 10.1242V12H16.3369L15.8936 14.8906H13.5635V21.8785C18.3441 21.1283 22.001 16.9913 22.001 12C22.001 6.47715 17.5238 2 12.001 2Z"></path></symbol><symbol viewBox="0 0 24 24" id="messenger-fill"><path d="M12.001 2C17.6345 2 22.001 6.1265 22.001 11.7C22.001 17.2735 17.6345 21.4 12.001 21.4C11.0233 21.4023 10.0497 21.273 9.10648 21.0155C8.92907 20.9668 8.7403 20.9808 8.57198 21.055L6.58748 21.931C6.34398 22.0386 6.06291 22.018 5.83768 21.8761C5.61244 21.7342 5.47254 21.4896 5.46448 21.2235L5.40998 19.4445C5.40257 19.2257 5.30547 19.0196 5.14148 18.8745C3.19598 17.1345 2.00098 14.6155 2.00098 11.7C2.00098 6.1265 6.36748 2 12.001 2ZM5.99598 14.5365C5.71398 14.984 6.26398 15.488 6.68498 15.1685L9.84048 12.7735C10.0543 12.6122 10.3491 12.6122 10.563 12.7735L12.8995 14.5235C13.2346 14.7749 13.6596 14.8747 14.0716 14.7987C14.4836 14.7227 14.8451 14.4779 15.0685 14.1235L18.006 9.4635C18.288 9.016 17.738 8.512 17.317 8.8315L14.1615 11.2265C13.9476 11.3878 13.6528 11.3878 13.439 11.2265L11.1025 9.4765C10.7673 9.22511 10.3423 9.12532 9.93034 9.2013C9.51834 9.27728 9.15689 9.5221 8.93348 9.8765L5.99598 14.5365Z"></path></symbol><symbol viewBox="0 0 24 24" id="youtube-fill"><path d="M12.2439 4C12.778 4.00294 14.1143 4.01586 15.5341 4.07273L16.0375 4.09468C17.467 4.16236 18.8953 4.27798 19.6037 4.4755C20.5486 4.74095 21.2913 5.5155 21.5423 6.49732C21.942 8.05641 21.992 11.0994 21.9982 11.8358L21.9991 11.9884L21.9991 11.9991C21.9991 11.9991 21.9991 12.0028 21.9991 12.0099L21.9982 12.1625C21.992 12.8989 21.942 15.9419 21.5423 17.501C21.2878 18.4864 20.5451 19.261 19.6037 19.5228C18.8953 19.7203 17.467 19.8359 16.0375 19.9036L15.5341 19.9255C14.1143 19.9824 12.778 19.9953 12.2439 19.9983L12.0095 19.9991L11.9991 19.9991C11.9991 19.9991 11.9956 19.9991 11.9887 19.9991L11.7545 19.9983C10.6241 19.9921 5.89772 19.941 4.39451 19.5228C3.4496 19.2573 2.70692 18.4828 2.45587 17.501C2.0562 15.9419 2.00624 12.8989 2 12.1625V11.8358C2.00624 11.0994 2.0562 8.05641 2.45587 6.49732C2.7104 5.51186 3.45308 4.73732 4.39451 4.4755C5.89772 4.05723 10.6241 4.00622 11.7545 4H12.2439ZM9.99911 8.49914V15.4991L15.9991 11.9991L9.99911 8.49914Z"></path></symbol><symbol viewBox="0 0 24 24" id="instagram-fill"><path d="M13.0281 2.00073C14.1535 2.00259 14.7238 2.00855 15.2166 2.02322L15.4107 2.02956C15.6349 2.03753 15.8561 2.04753 16.1228 2.06003C17.1869 2.1092 17.9128 2.27753 18.5503 2.52503C19.2094 2.7792 19.7661 3.12253 20.3219 3.67837C20.8769 4.2342 21.2203 4.79253 21.4753 5.45003C21.7219 6.0867 21.8903 6.81337 21.9403 7.87753C21.9522 8.1442 21.9618 8.3654 21.9697 8.58964L21.976 8.78373C21.9906 9.27647 21.9973 9.84686 21.9994 10.9723L22.0002 11.7179C22.0003 11.809 22.0003 11.903 22.0003 12L22.0002 12.2821L21.9996 13.0278C21.9977 14.1532 21.9918 14.7236 21.9771 15.2163L21.9707 15.4104C21.9628 15.6347 21.9528 15.8559 21.9403 16.1225C21.8911 17.1867 21.7219 17.9125 21.4753 18.55C21.2211 19.2092 20.8769 19.7659 20.3219 20.3217C19.7661 20.8767 19.2069 21.22 18.5503 21.475C17.9128 21.7217 17.1869 21.89 16.1228 21.94C15.8561 21.9519 15.6349 21.9616 15.4107 21.9694L15.2166 21.9757C14.7238 21.9904 14.1535 21.997 13.0281 21.9992L12.2824 22C12.1913 22 12.0973 22 12.0003 22L11.7182 22L10.9725 21.9993C9.8471 21.9975 9.27672 21.9915 8.78397 21.9768L8.58989 21.9705C8.36564 21.9625 8.14444 21.9525 7.87778 21.94C6.81361 21.8909 6.08861 21.7217 5.45028 21.475C4.79194 21.2209 4.23444 20.8767 3.67861 20.3217C3.12278 19.7659 2.78028 19.2067 2.52528 18.55C2.27778 17.9125 2.11028 17.1867 2.06028 16.1225C2.0484 15.8559 2.03871 15.6347 2.03086 15.4104L2.02457 15.2163C2.00994 14.7236 2.00327 14.1532 2.00111 13.0278L2.00098 10.9723C2.00284 9.84686 2.00879 9.27647 2.02346 8.78373L2.02981 8.58964C2.03778 8.3654 2.04778 8.1442 2.06028 7.87753C2.10944 6.81253 2.27778 6.08753 2.52528 5.45003C2.77944 4.7917 3.12278 4.2342 3.67861 3.67837C4.23444 3.12253 4.79278 2.78003 5.45028 2.52503C6.08778 2.27753 6.81278 2.11003 7.87778 2.06003C8.14444 2.04816 8.36564 2.03847 8.58989 2.03062L8.78397 2.02433C9.27672 2.00969 9.8471 2.00302 10.9725 2.00086L13.0281 2.00073ZM12.0003 7.00003C9.23738 7.00003 7.00028 9.23956 7.00028 12C7.00028 14.7629 9.23981 17 12.0003 17C14.7632 17 17.0003 14.7605 17.0003 12C17.0003 9.23713 14.7607 7.00003 12.0003 7.00003ZM12.0003 9.00003C13.6572 9.00003 15.0003 10.3427 15.0003 12C15.0003 13.6569 13.6576 15 12.0003 15C10.3434 15 9.00028 13.6574 9.00028 12C9.00028 10.3431 10.3429 9.00003 12.0003 9.00003ZM17.2503 5.50003C16.561 5.50003 16.0003 6.05994 16.0003 6.74918C16.0003 7.43843 16.5602 7.9992 17.2503 7.9992C17.9395 7.9992 18.5003 7.4393 18.5003 6.74918C18.5003 6.05994 17.9386 5.49917 17.2503 5.50003Z"></path></symbol><symbol viewBox="0 0 24 24" id="whatsapp-fill"><path d="M12.001 2C17.5238 2 22.001 6.47715 22.001 12C22.001 17.5228 17.5238 22 12.001 22C10.1671 22 8.44851 21.5064 6.97086 20.6447L2.00516 22L3.35712 17.0315C2.49494 15.5536 2.00098 13.8345 2.00098 12C2.00098 6.47715 6.47813 2 12.001 2ZM8.59339 7.30019L8.39232 7.30833C8.26293 7.31742 8.13607 7.34902 8.02057 7.40811C7.93392 7.45244 7.85348 7.51651 7.72709 7.63586C7.60774 7.74855 7.53857 7.84697 7.46569 7.94186C7.09599 8.4232 6.89729 9.01405 6.90098 9.62098C6.90299 10.1116 7.03043 10.5884 7.23169 11.0336C7.63982 11.9364 8.31288 12.8908 9.20194 13.7759C9.4155 13.9885 9.62473 14.2034 9.85034 14.402C10.9538 15.3736 12.2688 16.0742 13.6907 16.4482C13.6907 16.4482 14.2507 16.5342 14.2589 16.5347C14.4444 16.5447 14.6296 16.5313 14.8153 16.5218C15.1066 16.5068 15.391 16.428 15.6484 16.2909C15.8139 16.2028 15.8922 16.159 16.0311 16.0714C16.0311 16.0714 16.0737 16.0426 16.1559 15.9814C16.2909 15.8808 16.3743 15.81 16.4866 15.6934C16.5694 15.6074 16.6406 15.5058 16.6956 15.3913C16.7738 15.2281 16.8525 14.9166 16.8838 14.6579C16.9077 14.4603 16.9005 14.3523 16.8979 14.2854C16.8936 14.1778 16.8047 14.0671 16.7073 14.0201L16.1258 13.7587C16.1258 13.7587 15.2563 13.3803 14.7245 13.1377C14.6691 13.1124 14.6085 13.1007 14.5476 13.097C14.4142 13.0888 14.2647 13.1236 14.1696 13.2238C14.1646 13.2218 14.0984 13.279 13.3749 14.1555C13.335 14.2032 13.2415 14.3069 13.0798 14.2972C13.0554 14.2955 13.0311 14.292 13.0074 14.2858C12.9419 14.2685 12.8781 14.2457 12.8157 14.2193C12.692 14.1668 12.6486 14.1469 12.5641 14.1105C11.9868 13.8583 11.457 13.5209 10.9887 13.108C10.8631 12.9974 10.7463 12.8783 10.6259 12.7616C10.2057 12.3543 9.86169 11.9211 9.60577 11.4938C9.5918 11.4705 9.57027 11.4368 9.54708 11.3991C9.50521 11.331 9.45903 11.25 9.44455 11.1944C9.40738 11.0473 9.50599 10.9291 9.50599 10.9291C9.50599 10.9291 9.74939 10.663 9.86248 10.5183C9.97128 10.379 10.0652 10.2428 10.125 10.1457C10.2428 9.95633 10.2801 9.76062 10.2182 9.60963C9.93764 8.92565 9.64818 8.24536 9.34986 7.56894C9.29098 7.43545 9.11585 7.33846 8.95659 7.32007C8.90265 7.31384 8.84875 7.30758 8.79459 7.30402C8.66053 7.29748 8.5262 7.29892 8.39232 7.30833L8.59339 7.30019Z"></path></symbol><symbol viewBox="0 0 24 24" id="tiktok-fill"><path d="M16 8.24537V15.5C16 19.0899 13.0899 22 9.5 22C5.91015 22 3 19.0899 3 15.5C3 11.9101 5.91015 9 9.5 9C10.0163 9 10.5185 9.06019 11 9.17393V12.3368C10.5454 12.1208 10.0368 12 9.5 12C7.567 12 6 13.567 6 15.5C6 17.433 7.567 19 9.5 19C11.433 19 13 17.433 13 15.5V2H16C16 4.76142 18.2386 7 21 7V10C19.1081 10 17.3696 9.34328 16 8.24537Z"></path></symbol><symbol viewBox="0 0 24 24" id="play-fill"><path d="M19.376 12.4161L8.77735 19.4818C8.54759 19.635 8.23715 19.5729 8.08397 19.3432C8.02922 19.261 8 19.1645 8 19.0658V4.93433C8 4.65818 8.22386 4.43433 8.5 4.43433C8.59871 4.43433 8.69522 4.46355 8.77735 4.5183L19.376 11.584C19.6057 11.7372 19.6678 12.0477 19.5146 12.2774C19.478 12.3323 19.4309 12.3795 19.376 12.4161Z"></path></symbol><symbol viewBox="0 0 24 24" id="pause-fill"><path d="M6 5H8V19H6V5ZM16 5H18V19H16V5Z"></path></symbol><symbol viewBox="0 0 24 24" id="volume-down-fill"><path d="M8.88889 16H5C4.44772 16 4 15.5523 4 15V9.00001C4 8.44772 4.44772 8.00001 5 8.00001H8.88889L14.1834 3.66815C14.3971 3.49329 14.7121 3.52479 14.887 3.73851C14.9601 3.82784 15 3.93971 15 4.05513V19.9449C15 20.221 14.7761 20.4449 14.5 20.4449C14.3846 20.4449 14.2727 20.405 14.1834 20.3319L8.88889 16ZM18.8631 16.5911L17.4411 15.169C18.3892 14.4376 19 13.2901 19 12C19 10.5697 18.2493 9.31469 17.1203 8.6076L18.5589 7.169C20.0396 8.2616 21 10.0187 21 12C21 13.8422 20.1698 15.4904 18.8631 16.5911Z"></path></symbol><symbol viewBox="0 0 24 24" id="volume-mute-fill"><path d="M5.88889 16H2C1.44772 16 1 15.5523 1 15V9.00001C1 8.44772 1.44772 8.00001 2 8.00001H5.88889L11.1834 3.66815C11.3971 3.49329 11.7121 3.52479 11.887 3.73851C11.9601 3.82784 12 3.93971 12 4.05513V19.9449C12 20.221 11.7761 20.4449 11.5 20.4449C11.3846 20.4449 11.2727 20.405 11.1834 20.3319L5.88889 16ZM20.4142 12L23.9497 15.5355L22.5355 16.9498L19 13.4142L15.4645 16.9498L14.0503 15.5355L17.5858 12L14.0503 8.46447L15.4645 7.05026L19 10.5858L22.5355 7.05026L23.9497 8.46447L20.4142 12Z"></path></symbol><symbol viewBox="0 0 24 24" id="volume-up-fill"><path d="M2 16.0001H5.88889L11.1834 20.3319C11.2727 20.405 11.3846 20.4449 11.5 20.4449C11.7761 20.4449 12 20.2211 12 19.9449V4.05519C12 3.93977 11.9601 3.8279 11.887 3.73857C11.7121 3.52485 11.3971 3.49335 11.1834 3.66821L5.88889 8.00007H2C1.44772 8.00007 1 8.44778 1 9.00007V15.0001C1 15.5524 1.44772 16.0001 2 16.0001ZM23 12C23 15.292 21.5539 18.2463 19.2622 20.2622L17.8445 18.8444C19.7758 17.1937 21 14.7398 21 12C21 9.26016 19.7758 6.80629 17.8445 5.15557L19.2622 3.73779C21.5539 5.75368 23 8.70795 23 12ZM18 12C18 10.0883 17.106 8.38548 15.7133 7.28673L14.2842 8.71584C15.3213 9.43855 16 10.64 16 12C16 13.36 15.3213 14.5614 14.2842 15.2841L15.7133 16.7132C17.106 15.6145 18 13.9116 18 12Z"></path></symbol><symbol viewBox="0 0 24 24" id="spotify-fill"><path d="M12.001 2C6.50098 2 2.00098 6.5 2.00098 12C2.00098 17.5 6.50098 22 12.001 22C17.501 22 22.001 17.5 22.001 12C22.001 6.5 17.551 2 12.001 2ZM15.751 16.65C13.401 15.2 10.451 14.8992 6.95014 15.6992C6.60181 15.8008 6.30098 15.55 6.20098 15.25C6.10098 14.8992 6.35098 14.6 6.65098 14.5C10.451 13.6492 13.751 14 16.351 15.6C16.701 15.75 16.7501 16.1492 16.6018 16.45C16.4018 16.7492 16.0518 16.85 15.751 16.65ZM16.7501 13.95C14.051 12.3 9.95098 11.8 6.80098 12.8C6.40181 12.9 5.95098 12.7 5.85098 12.3C5.75098 11.9 5.95098 11.4492 6.35098 11.3492C10.001 10.25 14.501 10.8008 17.601 12.7C17.9018 12.8508 18.051 13.35 17.8018 13.7C17.551 14.05 17.101 14.2 16.7501 13.95ZM6.30098 9.75083C5.80098 9.9 5.30098 9.6 5.15098 9.15C5.00098 8.64917 5.30098 8.15 5.75098 7.99917C9.30098 6.94917 15.151 7.14917 18.8518 9.35C19.301 9.6 19.451 10.2 19.201 10.65C18.9518 11.0008 18.351 11.1492 17.9018 10.9C14.701 9 9.35098 8.8 6.30098 9.75083Z"></path></symbol><symbol viewBox="0 0 24 24" id="bluesky-fill"><path d="M12 11.3884C11.0942 9.62673 8.62833 6.34423 6.335 4.7259C4.13833 3.17506 3.30083 3.4434 2.75167 3.69256C2.11583 3.9784 2 4.95506 2 5.52839C2 6.10339 2.315 10.2367 2.52 10.9276C3.19917 13.2076 5.61417 13.9776 7.83917 13.7309C4.57917 14.2142 1.68333 15.4017 5.48083 19.6292C9.65833 23.9542 11.2058 18.7017 12 16.0392C12.7942 18.7017 13.7083 23.7651 18.4442 19.6292C22 16.0392 19.4208 14.2142 16.1608 13.7309C18.3858 13.9784 20.8008 13.2076 21.48 10.9276C21.685 10.2376 22 6.10256 22 5.52923C22 4.95423 21.8842 3.97839 21.2483 3.6909C20.6992 3.44256 19.8617 3.17423 17.665 4.72423C15.3717 6.34506 12.9058 9.62756 12 11.3884Z"></path></symbol><symbol viewBox="0 0 24 24" id="discord-fill"><path d="M19.3034 5.33716C17.9344 4.71103 16.4805 4.2547 14.9629 4C14.7719 4.32899 14.5596 4.77471 14.411 5.12492C12.7969 4.89144 11.1944 4.89144 9.60255 5.12492C9.45397 4.77471 9.2311 4.32899 9.05068 4C7.52251 4.2547 6.06861 4.71103 4.70915 5.33716C1.96053 9.39111 1.21766 13.3495 1.5891 17.2549C3.41443 18.5815 5.17612 19.388 6.90701 19.9187C7.33151 19.3456 7.71356 18.73 8.04255 18.0827C7.41641 17.8492 6.82211 17.5627 6.24904 17.2231C6.39762 17.117 6.5462 17.0003 6.68416 16.8835C10.1438 18.4648 13.8911 18.4648 17.3082 16.8835C17.4568 17.0003 17.5948 17.117 17.7434 17.2231C17.1703 17.5627 16.576 17.8492 15.9499 18.0827C16.2789 18.73 16.6609 19.3456 17.0854 19.9187C18.8152 19.388 20.5875 18.5815 22.4033 17.2549C22.8596 12.7341 21.6806 8.80747 19.3034 5.33716ZM8.5201 14.8459C7.48007 14.8459 6.63107 13.9014 6.63107 12.7447C6.63107 11.5879 7.45884 10.6434 8.5201 10.6434C9.57071 10.6434 10.4303 11.5879 10.4091 12.7447C10.4091 13.9014 9.57071 14.8459 8.5201 14.8459ZM15.4936 14.8459C14.4535 14.8459 13.6034 13.9014 13.6034 12.7447C13.6034 11.5879 14.4323 10.6434 15.4936 10.6434C16.5442 10.6434 17.4038 11.5879 17.3825 12.7447C17.3825 13.9014 16.5548 14.8459 15.4936 14.8459Z"></path></symbol><symbol viewBox="0 0 24 24" id="soundcloud-fill"><path d="M10.464 8.59606C10.7291 8.59606 10.944 10.7021 10.944 13.3001L10.9427 13.6511C10.9244 16.0851 10.717 18.0041 10.464 18.0041C10.2079 18.0041 9.99871 16.0392 9.98474 13.564L9.98408 13.2117C9.98889 10.6545 10.2019 8.59606 10.464 8.59606ZM8.8 9.55606C9.05863 9.55606 9.26949 11.3561 9.27962 13.6102V13.9499C9.26949 16.204 9.05863 18.0041 8.8 18.0041C8.5446 18.0041 8.33579 16.2488 8.32086 14.0343L8.3201 13.6949L8.32241 13.3544C8.34666 11.2214 8.55123 9.55606 8.8 9.55606ZM7.136 9.55606C7.3914 9.55606 7.60021 11.3114 7.61515 13.5259L7.6159 13.8652L7.61359 14.2057C7.58934 16.3387 7.38477 18.0041 7.136 18.0041C6.87737 18.0041 6.66651 16.204 6.65638 13.9499V13.6102C6.66651 11.3561 6.87737 9.55606 7.136 9.55606ZM5.472 10.1321C5.7371 10.1321 5.952 11.8943 5.952 14.0681L5.95028 14.4033C5.92954 16.4202 5.72333 18.0041 5.472 18.0041C5.21035 18.0041 4.99759 16.2873 4.99211 14.1525V13.9836C4.99759 11.8488 5.21035 10.1321 5.472 10.1321ZM3.808 11.8601C4.0731 11.8601 4.288 13.2354 4.288 14.9321L4.28738 15.0901C4.27452 16.7133 4.06481 18.0041 3.808 18.0041C3.5429 18.0041 3.328 16.6287 3.328 14.9321L3.32862 14.774C3.34148 13.1508 3.55119 11.8601 3.808 11.8601ZM14.592 7.06006C17.1727 7.06006 19.3129 8.94578 19.71 11.4145C20.0053 11.3295 20.3173 11.2841 20.64 11.2841C22.4957 11.2841 24 12.7884 24 14.6441C24 16.4786 22.5297 17.9698 20.7031 18.0035L20.64 18.0041H12.48C12.0558 18.0041 11.712 17.6602 11.712 17.2361V7.93296C12.5358 7.3816 13.5263 7.06006 14.592 7.06006ZM2.144 11.6681C2.4091 11.6681 2.624 13.0005 2.624 14.6441L2.62336 14.7996C2.6103 16.3709 2.40068 17.6201 2.144 17.6201C1.88311 17.6201 1.67084 16.3296 1.66416 14.7221L1.664 14.6441C1.664 13.0005 1.8789 11.6681 2.144 11.6681ZM0.48 12.6281C0.745097 12.6281 0.96 13.5736 0.96 14.7401L0.959091 14.8711C0.943709 15.9765 0.735093 16.8521 0.48 16.8521C0.214903 16.8521 0 15.9065 0 14.7401L0.000909213 14.609C0.0162906 13.5036 0.224907 12.6281 0.48 12.6281Z"></path></symbol><symbol viewBox="0 0 24 24" id="threads-fill"><path d="M16.7051 11.1081C16.543 8.12137 14.911 6.41148 12.1708 6.39398C10.5193 6.3838 9.13771 7.08389 8.29233 8.36664L9.79941 9.40046C10.4334 8.43852 11.4342 8.24015 12.1593 8.24685C13.0616 8.2526 13.7425 8.51494 14.1832 9.02653C14.5038 9.39899 14.7183 9.91367 14.8245 10.5632C14.0246 10.4273 13.1594 10.3855 12.2345 10.4385C9.62919 10.5886 7.95426 12.1081 8.06675 14.2194C8.12384 15.2904 8.65739 16.2118 9.56906 16.8137C10.3399 17.3225 11.3326 17.5713 12.3644 17.515C13.727 17.4403 14.7959 16.9205 15.5416 15.9699C16.1079 15.248 16.4661 14.3125 16.6243 13.1338C17.2737 13.5257 17.7549 14.0414 18.0207 14.6613C18.4726 15.7151 18.499 17.4469 17.086 18.8587C15.848 20.0955 14.3598 20.6306 12.1108 20.6471C9.61601 20.6286 7.72924 19.8285 6.50253 18.269C5.35381 16.8088 4.76014 14.6996 4.73799 12C4.76014 9.30038 5.35381 7.19117 6.50253 5.73092C7.72924 4.17147 9.61597 3.37141 12.1107 3.35287C14.6236 3.37155 16.5433 4.17547 17.8169 5.74244C18.4415 6.51086 18.9123 7.47721 19.2227 8.60394L20.9888 8.13274C20.6125 6.74587 20.0205 5.55078 19.2148 4.55966C17.582 2.55073 15.1816 1.52134 12.1046 1.5C9.03385 1.52127 6.6725 2.55457 5.08614 4.57117C3.67451 6.3657 2.94634 8.87742 2.92188 12.0074C2.94634 15.1373 3.67451 17.6343 5.08614 19.4289C6.6725 21.4454 9.04616 22.4788 12.1169 22.5C14.847 22.4811 16.7713 21.7663 18.3566 20.1825C20.4307 18.1103 20.3682 15.513 19.6846 13.9185C19.1595 12.6943 18.1141 11.7129 16.7051 11.1081ZM12.2669 15.6648C11.125 15.7291 9.93869 15.2166 9.88019 14.1188C9.83684 13.3048 10.4595 12.3966 12.3369 12.2884C13.2594 12.2352 14.1138 12.2976 14.8701 12.463C14.6538 15.1648 13.3848 15.6035 12.2669 15.6648Z"></path></symbol><symbol viewBox="0 0 24 24" id="twitter-x-fill"><path d="M18.2048 2.25H21.5128L14.2858 10.51L22.7878 21.75H16.1308L10.9168 14.933L4.95084 21.75H1.64084L9.37084 12.915L1.21484 2.25H8.04084L12.7538 8.481L18.2048 2.25ZM17.0438 19.77H18.8768L7.04484 4.126H5.07784L17.0438 19.77Z"></path></symbol><symbol viewBox="0 0 24 24" id="twitter-fill"><path d="M22.2125 5.65605C21.4491 5.99375 20.6395 6.21555 19.8106 6.31411C20.6839 5.79132 21.3374 4.9689 21.6493 4.00005C20.8287 4.48761 19.9305 4.83077 18.9938 5.01461C18.2031 4.17106 17.098 3.69303 15.9418 3.69434C13.6326 3.69434 11.7597 5.56661 11.7597 7.87683C11.7597 8.20458 11.7973 8.52242 11.8676 8.82909C8.39047 8.65404 5.31007 6.99005 3.24678 4.45941C2.87529 5.09767 2.68005 5.82318 2.68104 6.56167C2.68104 8.01259 3.4196 9.29324 4.54149 10.043C3.87737 10.022 3.22788 9.84264 2.64718 9.51973C2.64654 9.5373 2.64654 9.55487 2.64654 9.57148C2.64654 11.5984 4.08819 13.2892 6.00199 13.6731C5.6428 13.7703 5.27232 13.8194 4.90022 13.8191C4.62997 13.8191 4.36771 13.7942 4.11279 13.7453C4.64531 15.4065 6.18886 16.6159 8.0196 16.6491C6.53813 17.8118 4.70869 18.4426 2.82543 18.4399C2.49212 18.4402 2.15909 18.4205 1.82812 18.3811C3.74004 19.6102 5.96552 20.2625 8.23842 20.2601C15.9316 20.2601 20.138 13.8875 20.138 8.36111C20.138 8.1803 20.1336 7.99886 20.1256 7.81997C20.9443 7.22845 21.651 6.49567 22.2125 5.65605Z"></path></symbol><symbol viewBox="0 0 24 24" id="telegram-2-fill"><path d="M2.14753 11.8099C7.3949 9.52374 10.894 8.01654 12.6447 7.28833C17.6435 5.20916 18.6822 4.84799 19.3592 4.83606C19.5081 4.83344 19.8411 4.87034 20.0567 5.04534C20.2388 5.1931 20.2889 5.39271 20.3129 5.5328C20.3369 5.6729 20.3667 5.99204 20.343 6.2414C20.0721 9.08763 18.9 15.9947 18.3037 19.1825C18.0514 20.5314 17.5546 20.9836 17.0736 21.0279C16.0283 21.1241 15.2345 20.3371 14.2221 19.6735C12.6379 18.635 11.7429 17.9885 10.2051 16.9751C8.42795 15.804 9.58001 15.1603 10.5928 14.1084C10.8579 13.8331 15.4635 9.64397 15.5526 9.26395C15.5637 9.21642 15.5741 9.03926 15.4688 8.94571C15.3636 8.85216 15.2083 8.88415 15.0962 8.9096C14.9373 8.94566 12.4064 10.6184 7.50365 13.928C6.78528 14.4212 6.13461 14.6616 5.55163 14.649C4.90893 14.6351 3.67265 14.2856 2.7536 13.9869C1.62635 13.6204 0.730432 13.4267 0.808447 12.8044C0.849081 12.4803 1.29544 12.1488 2.14753 11.8099Z"></path></symbol></svg>